# xmcd
#
# Track frame offsets:
#	150
#	12475
#	23493
#	34416
#	42028
#	58404
#	69936
#	78184
#	88792
#	99120
#	107206
#	119999
#	130880
#	142290
#	153145
#
# Disc length: 2186 seconds
#
# Revision: 0
# Processed by: cddbd v1.5.1PL2 Copyright (c) Steve Scherf et al.
# Submitted via: dBpowerAMP V4.0
#
DISCID=ca08880f
DTITLE=Hee Haw Gospel Quartet - Time Life [CD1]
DYEAR=2006
DGENRE=Gospel
TTITLE0=Jesus Hold My Hand
TTITLE1=Camping In Canaan's Land
TTITLE2=Shall We Gather At The River
TTITLE3=Turn Your Radio On
TTITLE4=A Beautiful Life
TTITLE5=Just Over In The Glory Land
TTITLE6=Amazing Grace
TTITLE7=Love Lifted Me
TTITLE8=Dust On The Bible
TTITLE9=Empty Mansions
TTITLE10=Where Could I Go
TTITLE11=In The Garden
TTITLE12=Only One Step More
TTITLE13=Rockin On The Waves
TTITLE14=When The Roll Is Called Up Yonder
EXTD=
EXTT0=
EXTT1=
EXTT2=
EXTT3=
EXTT4=
EXTT5=
EXTT6=
EXTT7=
EXTT8=
EXTT9=
EXTT10=
EXTT11=
EXTT12=
EXTT13=
EXTT14=
PLAYORDER=
